<svg width="20" height="20" viewBox="0 0 20 20" fill="none" xmlns="http://www.w3.org/2000/svg">
<path d="M2 9.79458C2 6.70042 2 5.15293 2.9376 4.19211C3.8744 3.23047 5.3832 3.23047 8.4 3.23047H11.6C14.6168 3.23047 16.1256 3.23047 17.0624 4.19211C18 5.15293 18 6.70042 18 9.79458V11.4356C18 14.5298 18 16.0773 17.0624 17.0381C16.1256 17.9997 14.6168 17.9997 11.6 17.9997H8.4C5.3832 17.9997 3.8744 17.9997 2.9376 17.0381C2 16.0773 2 14.5298 2 11.4356V9.79458Z" stroke="black" stroke-width="1.37144"/>
<path d="M5.99844 3.23077V2M13.9984 3.23077V2M2.39844 7.33334H17.5984" stroke="black" stroke-width="1.37144" stroke-linecap="round"/>
<path d="M14.7992 13.8955C14.7992 14.1132 14.7149 14.3219 14.5649 14.4757C14.4149 14.6296 14.2114 14.7161 13.9992 14.7161C13.787 14.7161 13.5836 14.6296 13.4335 14.4757C13.2835 14.3219 13.1992 14.1132 13.1992 13.8955C13.1992 13.6779 13.2835 13.4692 13.4335 13.3153C13.5836 13.1615 13.787 13.075 13.9992 13.075C14.2114 13.075 14.4149 13.1615 14.5649 13.3153C14.7149 13.4692 14.7992 13.6779 14.7992 13.8955ZM14.7992 10.6135C14.7992 10.8311 14.7149 11.0398 14.5649 11.1937C14.4149 11.3476 14.2114 11.434 13.9992 11.434C13.787 11.434 13.5836 11.3476 13.4335 11.1937C13.2835 11.0398 13.1992 10.8311 13.1992 10.6135C13.1992 10.3959 13.2835 10.1872 13.4335 10.0333C13.5836 9.87942 13.787 9.79297 13.9992 9.79297C14.2114 9.79297 14.4149 9.87942 14.5649 10.0333C14.7149 10.1872 14.7992 10.3959 14.7992 10.6135ZM10.7992 13.8955C10.7992 14.1132 10.7149 14.3219 10.5649 14.4757C10.4149 14.6296 10.2114 14.7161 9.99922 14.7161C9.78705 14.7161 9.58356 14.6296 9.43353 14.4757C9.2835 14.3219 9.19922 14.1132 9.19922 13.8955C9.19922 13.6779 9.2835 13.4692 9.43353 13.3153C9.58356 13.1615 9.78705 13.075 9.99922 13.075C10.2114 13.075 10.4149 13.1615 10.5649 13.3153C10.7149 13.4692 10.7992 13.6779 10.7992 13.8955ZM10.7992 10.6135C10.7992 10.8311 10.7149 11.0398 10.5649 11.1937C10.4149 11.3476 10.2114 11.434 9.99922 11.434C9.78705 11.434 9.58356 11.3476 9.43353 11.1937C9.2835 11.0398 9.19922 10.8311 9.19922 10.6135C9.19922 10.3959 9.2835 10.1872 9.43353 10.0333C9.58356 9.87942 9.78705 9.79297 9.99922 9.79297C10.2114 9.79297 10.4149 9.87942 10.5649 10.0333C10.7149 10.1872 10.7992 10.3959 10.7992 10.6135ZM6.79922 13.8955C6.79922 14.1132 6.71493 14.3219 6.5649 14.4757C6.41487 14.6296 6.21139 14.7161 5.99922 14.7161C5.78705 14.7161 5.58356 14.6296 5.43353 14.4757C5.2835 14.3219 5.19922 14.1132 5.19922 13.8955C5.19922 13.6779 5.2835 13.4692 5.43353 13.3153C5.58356 13.1615 5.78705 13.075 5.99922 13.075C6.21139 13.075 6.41487 13.1615 6.5649 13.3153C6.71493 13.4692 6.79922 13.6779 6.79922 13.8955ZM6.79922 10.6135C6.79922 10.8311 6.71493 11.0398 6.5649 11.1937C6.41487 11.3476 6.21139 11.434 5.99922 11.434C5.78705 11.434 5.58356 11.3476 5.43353 11.1937C5.2835 11.0398 5.19922 10.8311 5.19922 10.6135C5.19922 10.3959 5.2835 10.1872 5.43353 10.0333C5.58356 9.87942 5.78705 9.79297 5.99922 9.79297C6.21139 9.79297 6.41487 9.87942 6.5649 10.0333C6.71493 10.1872 6.79922 10.3959 6.79922 10.6135Z" fill="black"/>
</svg>
