<svg width="30" height="30" viewBox="0 0 30 30" fill="none" xmlns="http://www.w3.org/2000/svg">
<path d="M15 4.6875C15.2486 4.6875 15.4871 4.58873 15.6629 4.41291C15.8387 4.2371 15.9375 3.99864 15.9375 3.75V2.8125C15.9375 2.56386 15.8387 2.3254 15.6629 2.14959C15.4871 1.97377 15.2486 1.875 15 1.875C14.7514 1.875 14.5129 1.97377 14.3371 2.14959C14.1613 2.3254 14.0625 2.56386 14.0625 2.8125V3.75C14.0625 3.99864 14.1613 4.2371 14.3371 4.41291C14.5129 4.58873 14.7514 4.6875 15 4.6875Z" fill="#B2ABAB"/>
<path d="M15 25.3125C14.7514 25.3125 14.5129 25.4113 14.3371 25.5871C14.1613 25.7629 14.0625 26.0014 14.0625 26.25V27.1875C14.0625 27.4361 14.1613 27.6746 14.3371 27.8504C14.5129 28.0262 14.7514 28.125 15 28.125C15.2486 28.125 15.4871 28.0262 15.6629 27.8504C15.8387 27.6746 15.9375 27.4361 15.9375 27.1875V26.25C15.9375 26.0014 15.8387 25.7629 15.6629 25.5871C15.4871 25.4113 15.2486 25.3125 15 25.3125Z" fill="#B2ABAB"/>
<path d="M27.1875 14.0625H26.25C26.0014 14.0625 25.7629 14.1613 25.5871 14.3371C25.4113 14.5129 25.3125 14.7514 25.3125 15C25.3125 15.2486 25.4113 15.4871 25.5871 15.6629C25.7629 15.8387 26.0014 15.9375 26.25 15.9375H27.1875C27.4361 15.9375 27.6746 15.8387 27.8504 15.6629C28.0262 15.4871 28.125 15.2486 28.125 15C28.125 14.7514 28.0262 14.5129 27.8504 14.3371C27.6746 14.1613 27.4361 14.0625 27.1875 14.0625Z" fill="#B2ABAB"/>
<path d="M3.75 14.0625H2.8125C2.56386 14.0625 2.3254 14.1613 2.14959 14.3371C1.97377 14.5129 1.875 14.7514 1.875 15C1.875 15.2486 1.97377 15.4871 2.14959 15.6629C2.3254 15.8387 2.56386 15.9375 2.8125 15.9375H3.75C3.99864 15.9375 4.2371 15.8387 4.41291 15.6629C4.58873 15.4871 4.6875 15.2486 4.6875 15C4.6875 14.7514 4.58873 14.5129 4.41291 14.3371C4.2371 14.1613 3.99864 14.0625 3.75 14.0625Z" fill="#B2ABAB"/>
<path d="M22.9568 5.72005L22.294 6.38287C22.2045 6.46935 22.1331 6.57279 22.0839 6.68717C22.0348 6.80155 22.0089 6.92457 22.0078 7.04905C22.0068 7.17353 22.0305 7.29698 22.0776 7.4122C22.1248 7.52741 22.1944 7.63209 22.2824 7.72011C22.3704 7.80813 22.4751 7.87775 22.5903 7.92489C22.7055 7.97202 22.829 7.99574 22.9535 7.99466C23.0779 7.99358 23.201 7.96772 23.3153 7.91859C23.4297 7.86945 23.5332 7.79803 23.6196 7.70849L24.2834 7.04662C24.3705 6.95951 24.4396 6.85611 24.4867 6.7423C24.5339 6.62849 24.5581 6.50652 24.5581 6.38333C24.5581 6.26015 24.5339 6.13817 24.4867 6.02437C24.4396 5.91056 24.3705 5.80716 24.2834 5.72005C24.1963 5.63295 24.0929 5.56386 23.9791 5.51672C23.8653 5.46958 23.7433 5.44531 23.6201 5.44531C23.4969 5.44531 23.375 5.46958 23.2611 5.51672C23.1473 5.56386 23.0439 5.63295 22.9568 5.72005Z" fill="#B2ABAB"/>
<path d="M6.3838 22.29L5.72005 22.9528C5.63295 23.0399 5.56386 23.1434 5.51672 23.2572C5.46958 23.371 5.44531 23.4929 5.44531 23.6161C5.44531 23.7393 5.46958 23.8613 5.51672 23.9751C5.56386 24.0889 5.63295 24.1923 5.72005 24.2794C5.89597 24.4553 6.13456 24.5541 6.38333 24.5541C6.50652 24.5541 6.62849 24.5299 6.7423 24.4827C6.85611 24.4356 6.95951 24.3665 7.04662 24.2794L7.70943 23.6166C7.79653 23.5296 7.86564 23.4262 7.9128 23.3125C7.95996 23.1987 7.98426 23.0768 7.98431 22.9536C7.98435 22.8305 7.96014 22.7086 7.91306 22.5948C7.86597 22.481 7.79694 22.3776 7.7099 22.2905C7.62285 22.2034 7.51951 22.1343 7.40576 22.0871C7.29201 22.04 7.17009 22.0157 7.04695 22.0156C6.79826 22.0155 6.55972 22.1142 6.3838 22.29Z" fill="#B2ABAB"/>
<path d="M23.6161 22.2905C23.4393 22.1197 23.2025 22.0252 22.9567 22.0274C22.7109 22.0295 22.4758 22.1281 22.3019 22.3019C22.1281 22.4758 22.0295 22.7109 22.0274 22.9567C22.0252 23.2025 22.1197 23.4393 22.2905 23.6161L22.9533 24.2799C23.1292 24.4558 23.3678 24.5546 23.6166 24.5546C23.8654 24.5546 24.104 24.4558 24.2799 24.2799C24.4558 24.104 24.5546 23.8654 24.5546 23.6166C24.5546 23.3678 24.4558 23.1292 24.2799 22.9533L23.6161 22.2905Z" fill="#B2ABAB"/>
<path d="M6.3838 7.70943C6.56062 7.8802 6.79743 7.9747 7.04324 7.97256C7.28905 7.97042 7.52419 7.87183 7.69801 7.69801C7.87183 7.52419 7.97042 7.28905 7.97256 7.04324C7.9747 6.79743 7.8802 6.56062 7.70943 6.3838L7.04661 5.72005C6.8707 5.54414 6.63211 5.44531 6.38333 5.44531C6.13455 5.44531 5.89597 5.54414 5.72005 5.72005C5.54414 5.89597 5.44531 6.13455 5.44531 6.38333C5.44531 6.63211 5.54414 6.8707 5.72005 7.04661L6.3838 7.70943Z" fill="#B2ABAB"/>
<path d="M23.1572 16.3894C23.0362 16.27 22.8851 16.1857 22.72 16.1456C22.5548 16.1055 22.3819 16.111 22.2196 16.1616C21.5906 16.3559 20.9356 16.4532 20.2771 16.4503C18.4931 16.4486 16.7826 15.7392 15.521 14.4777C14.2594 13.2163 13.5498 11.5059 13.5478 9.72187C13.5455 9.06368 13.6435 8.40897 13.8384 7.78031C13.8893 7.61789 13.895 7.44469 13.8549 7.27927C13.8149 7.11385 13.7305 6.96247 13.6109 6.84135C13.4914 6.72023 13.3411 6.63395 13.1762 6.59176C13.0113 6.54957 12.838 6.55306 12.675 6.60187C11.2518 7.03223 9.9645 7.82409 8.93859 8.90022C7.91267 9.97635 7.18318 11.3 6.82126 12.7421C6.45934 14.1841 6.47735 15.6954 6.87354 17.1284C7.26973 18.5615 8.03057 19.8674 9.08185 20.9187C10.1331 21.9701 11.4389 22.731 12.8719 23.1274C14.3049 23.5237 15.8162 23.5418 17.2583 23.18C18.7004 22.8182 20.0241 22.0889 21.1003 21.063C22.1766 20.0372 22.9685 18.75 23.399 17.3269C23.4478 17.1634 23.4511 16.9897 23.4085 16.8245C23.3659 16.6593 23.279 16.5088 23.1572 16.3894Z" fill="#B2ABAB"/>
</svg>
