<svg width="106" height="33" viewBox="0 0 106 33" fill="none" xmlns="http://www.w3.org/2000/svg">
<path d="M102.994 8.46666H105V33L1 33V11.4536L4.00877 18.9203L5.20413 21.9069H6.60551L9.40827 18.9203L11.3702 21.907L17.256 21.9072L20.339 18.9204L22.0207 14.4396L24.4683 16.6803L26.6747 18.9203L27.3638 22.3333L28.7651 21.9069H30.4858L33.6952 11.4536L34.6981 14.4403L36.3028 11.4536L37.5063 16.6803L40.7156 7.72028L42.5209 11.4536H45.9308L49.5413 3.98696L51.7477 7.72028L54.6535 5.48L58.194 11.4533L60.4704 1L62.1179 11.4533L73.1072 15.9333L74.5113 12.9466H75.9153L79.1247 8.46666H82.334L83.5375 12.9466L88.3515 3.98666L90.3574 15.9333L91.3603 11.4533H93.5667L95.5726 1L97.5784 9.95999L98.5813 5.48H101.189L102.994 8.46666Z" fill="url(#paint0_linear_123_3047)" fill-opacity="0.16"/>
<path d="M105 8.46535H102.994L101.189 5.4787H98.5813L97.5784 9.95869L95.5726 0.9987L93.5667 11.452H91.3603L90.3574 15.932L88.3515 3.98536L83.5375 12.9453L82.334 8.46535H79.1247L75.9153 12.9453H74.5113L73.1072 15.932L62.1179 11.452L60.4704 0.9987L58.194 11.452L54.6535 5.4787L51.7477 7.71898L49.5413 3.98566L45.9308 11.4523H42.5209L40.7156 7.71898L37.5063 16.679L36.3028 11.4523L34.6981 14.439L33.6952 11.4523L30.4858 21.9056H28.7651L27.3638 22.332L26.6747 18.919L24.4683 16.679L22.0206 14.4383L20.339 18.9191L17.256 21.9059L11.3702 21.9057L9.40827 18.919L6.60551 21.9056H5.20414L4.00877 18.919L1 11.4523" stroke="#66C87B" stroke-linecap="round"/>
<defs>
<linearGradient id="paint0_linear_123_3047" x1="53" y1="33" x2="53" y2="1" gradientUnits="userSpaceOnUse">
<stop stop-color="#77B900" stop-opacity="0"/>
<stop offset="0.809892" stop-color="#77B900"/>
</linearGradient>
</defs>
</svg>
