<svg width="30" height="30" viewBox="0 0 30 30" fill="none" xmlns="http://www.w3.org/2000/svg">
<rect width="30" height="30" rx="15" fill="#34CAA5"/>
<g clip-path="url(#clip0_123_3864)">
<path d="M15 19.2188C17.33 19.2188 19.2188 17.33 19.2188 15C19.2188 12.67 17.33 10.7812 15 10.7812C12.67 10.7812 10.7812 12.67 10.7812 15C10.7812 17.33 12.67 19.2188 15 19.2188Z" fill="white"/>
<path d="M15 9.09345C14.5336 9.09345 14.1562 8.71564 14.1562 8.2497V7.40625C14.1562 6.94031 14.5336 6.5625 15 6.5625C15.4664 6.5625 15.8438 6.94031 15.8438 7.40625V8.2497C15.8438 8.71564 15.4664 9.09345 15 9.09345Z" fill="white"/>
<path d="M19.7734 11.0691C19.5576 11.0691 19.3417 10.9867 19.1769 10.8219C18.8473 10.4924 18.8473 9.95817 19.1769 9.62868L19.7734 9.03222C20.103 8.70283 20.637 8.70273 20.9666 9.03232C21.2961 9.36181 21.2961 9.89605 20.9666 10.2255L20.37 10.822C20.2052 10.9867 19.9893 11.0691 19.7734 11.0691Z" fill="white"/>
<path d="M22.5937 15.8438H21.75C21.2836 15.8438 20.9062 15.4659 20.9062 15C20.9062 14.5341 21.2836 14.1562 21.75 14.1562H22.5937C23.0601 14.1562 23.4375 14.5341 23.4375 15C23.4375 15.4659 23.0601 15.8438 22.5937 15.8438Z" fill="white"/>
<path d="M20.37 21.2137C20.1541 21.2137 19.9382 21.1314 19.7734 20.9666L19.1769 20.3701C18.8473 20.0407 18.8473 19.5064 19.1769 19.1769C19.5065 18.8473 20.0404 18.8472 20.37 19.1768L20.9666 19.7733C21.2961 20.1028 21.2961 20.637 20.9666 20.9665C20.8018 21.1313 20.5859 21.2137 20.37 21.2137Z" fill="white"/>
<path d="M15 23.4372C14.5336 23.4372 14.1562 23.0594 14.1562 22.5935V21.75C14.1562 21.2841 14.5336 20.9062 15 20.9062C15.4664 20.9062 15.8438 21.2841 15.8438 21.75V22.5935C15.8438 23.0594 15.4664 23.4372 15 23.4372Z" fill="white"/>
<path d="M9.62891 21.2136C9.41302 21.2136 9.19714 21.1312 9.03235 20.9664C8.70276 20.6369 8.70276 20.1027 9.03235 19.7732L9.62891 19.1768C9.9585 18.8474 10.4924 18.8473 10.822 19.1769C11.1516 19.5063 11.1516 20.0406 10.822 20.3701L10.2255 20.9665C10.0607 21.1312 9.84479 21.2136 9.62891 21.2136Z" fill="white"/>
<path d="M8.25 15.8438H7.40625C6.93988 15.8438 6.5625 15.4659 6.5625 15C6.5625 14.5341 6.93988 14.1562 7.40625 14.1562H8.25C8.71637 14.1562 9.09375 14.5341 9.09375 15C9.09375 15.4659 8.71637 15.8438 8.25 15.8438Z" fill="white"/>
<path d="M10.2255 11.0692C10.0096 11.0692 9.7937 10.9869 9.62891 10.8221L9.03235 10.2256C8.70276 9.89612 8.70276 9.36189 9.03235 9.0324C9.36194 8.70281 9.89587 8.70271 10.2255 9.0323L10.822 9.62876C11.1516 9.95825 11.1516 10.4925 10.822 10.822C10.6572 10.9868 10.4413 11.0692 10.2255 11.0692Z" fill="white"/>
</g>
<defs>
<clipPath id="clip0_123_3864">
<rect width="16.875" height="16.875" fill="white" transform="translate(6.5625 6.5625)"/>
</clipPath>
</defs>
</svg>
