<svg width="40" height="40" viewBox="0 0 40 40" fill="none" xmlns="http://www.w3.org/2000/svg">
<path d="M23 20C23 18.34 21.66 17 20 17C18.34 17 17 18.34 17 20C17 21.66 18.34 23 20 23C20.41 23 20.81 22.92 21.17 22.76" stroke="#B2ABAB" stroke-width="1.5" stroke-miterlimit="10" stroke-linecap="round" stroke-linejoin="round"/>
<path d="M14.8789 28.5803L15.9689 29.2103C16.7589 29.6803 17.7789 29.4003 18.2489 28.6103L18.3589 28.4203C19.2589 26.8503 20.7389 26.8503 21.6489 28.4203L21.7589 28.6103C22.2289 29.4003 23.2489 29.6803 24.0389 29.2103L25.7689 28.2203C26.6789 27.7003 26.9889 26.5303 26.4689 25.6303C25.5589 24.0603 26.2989 22.7803 28.1089 22.7803C29.1489 22.7803 30.0089 21.9303 30.0089 20.8803V19.1203C30.0089 18.0803 29.1589 17.2203 28.1089 17.2203C27.0989 17.2203 26.4189 16.8203 26.1789 16.1903C25.9889 15.7003 26.0689 15.0603 26.4689 14.3703C26.9889 13.4603 26.6789 12.3003 25.7689 11.7803L24.9589 11.3203" stroke="#B2ABAB" stroke-width="1.5" stroke-miterlimit="10" stroke-linecap="round" stroke-linejoin="round"/>
<path d="M21.64 11.5814C20.74 13.1514 19.26 13.1514 18.35 11.5814L18.24 11.3914C17.78 10.6014 16.76 10.3214 15.97 10.7914L14.24 11.7814C13.33 12.3014 13.02 13.4714 13.54 14.3814C14.45 15.9414 13.71 17.2214 11.9 17.2214C10.86 17.2214 10 18.0714 10 19.1214V20.8814C10 21.9214 10.85 22.7814 11.9 22.7814C13.71 22.7814 14.45 24.0614 13.54 25.6314" stroke="#B2ABAB" stroke-width="1.5" stroke-miterlimit="10" stroke-linecap="round" stroke-linejoin="round"/>
</svg>
