<svg width="40" height="40" viewBox="0 0 40 40" fill="none" xmlns="http://www.w3.org/2000/svg">
<path d="M11.1719 15.4375L20.0019 20.5475L28.7719 15.4675" stroke="#B7B0B0" stroke-width="1.5" stroke-linecap="round" stroke-linejoin="round"/>
<path d="M20 29.6091V20.5391" stroke="#B7B0B0" stroke-width="1.5" stroke-linecap="round" stroke-linejoin="round"/>
<path d="M10.3906 17.1686C10.3906 15.7886 11.3806 14.1086 12.5906 13.4386L17.9306 10.4686C19.0706 9.83859 20.9406 9.83859 22.0806 10.4686L27.4206 13.4386C28.6306 14.1086 29.6206 15.7886 29.6206 17.1686V22.8186C29.6206 24.1986 28.6306 25.8786 27.4206 26.5486L22.0806 29.5186C20.9406 30.1486 19.0706 30.1486 17.9306 29.5186L12.5906 26.5486C11.3806 25.8786 10.3906 24.1986 10.3906 22.8186V21.9986" stroke="#B7B0B0" stroke-width="1.5" stroke-linecap="round" stroke-linejoin="round"/>
<path d="M25.0017 21.2416V17.5816L18.9317 14.0716L17.8817 13.4716L15.5117 12.1016" stroke="#B7B0B0" stroke-width="1.5" stroke-linecap="round" stroke-linejoin="round"/>
</svg>
