<svg width="40" height="40" viewBox="0 0 40 40" fill="none" xmlns="http://www.w3.org/2000/svg">
<path d="M15.24 10H13.34C11.15 10 10 11.15 10 13.33V15.23C10 17.41 11.15 18.56 13.33 18.56H15.23C17.41 18.56 18.56 17.41 18.56 15.23V13.33C18.57 11.15 17.42 10 15.24 10Z" fill="#0D062D"/>
<path opacity="0.4" d="M26.6714 10H24.7714C22.5914 10 21.4414 11.15 21.4414 13.33V15.23C21.4414 17.41 22.5914 18.56 24.7714 18.56H26.6714C28.8514 18.56 30.0014 17.41 30.0014 15.23V13.33C30.0014 11.15 28.8514 10 26.6714 10Z" fill="#0D062D"/>
<path d="M26.6714 21.4297H24.7714C22.5914 21.4297 21.4414 22.5797 21.4414 24.7597V26.6597C21.4414 28.8397 22.5914 29.9897 24.7714 29.9897H26.6714C28.8514 29.9897 30.0014 28.8397 30.0014 26.6597V24.7597C30.0014 22.5797 28.8514 21.4297 26.6714 21.4297Z" fill="#0D062D"/>
<path opacity="0.4" d="M15.24 21.4297H13.34C11.15 21.4297 10 22.5797 10 24.7597V26.6597C10 28.8497 11.15 29.9997 13.33 29.9997H15.23C17.41 29.9997 18.56 28.8497 18.56 26.6697V24.7697C18.57 22.5797 17.42 21.4297 15.24 21.4297Z" fill="#0D062D"/>
</svg>
