<svg width="40" height="40" viewBox="0 0 40 40" fill="none" xmlns="http://www.w3.org/2000/svg">
<path d="M20.6786 11.96C21.1586 12.67 21.4386 13.52 21.4386 14.44C21.4286 16.84 19.5386 18.79 17.1586 18.87C17.0586 18.86 16.9386 18.86 16.8286 18.87C14.4486 18.79 12.5586 16.84 12.5586 14.44C12.5586 11.99 14.5386 10 16.9986 10" stroke="#B2ABAB" stroke-width="1.5" stroke-linecap="round" stroke-linejoin="round"/>
<path d="M24.4112 12C26.3512 12 27.9112 13.57 27.9112 15.5C27.9112 17.39 26.4113 18.93 24.5413 19C24.4613 18.99 24.3713 18.99 24.2812 19" stroke="#B2ABAB" stroke-width="1.5" stroke-linecap="round" stroke-linejoin="round"/>
<path d="M12.1588 22.56C9.73875 24.18 9.73875 26.82 12.1588 28.43C14.9088 30.27 19.4188 30.27 22.1688 28.43C24.5888 26.81 24.5888 24.17 22.1688 22.56C19.4288 20.73 14.9188 20.73 12.1588 22.56Z" stroke="#B2ABAB" stroke-width="1.5" stroke-linecap="round" stroke-linejoin="round"/>
<path d="M26.3398 28C27.0598 27.85 27.7398 27.56 28.2998 27.13C29.8598 25.96 29.8598 24.03 28.2998 22.86C27.7498 22.44 27.0798 22.16 26.3698 22" stroke="#B2ABAB" stroke-width="1.5" stroke-linecap="round" stroke-linejoin="round"/>
</svg>
