<svg width="40" height="40" viewBox="0 0 40 40" fill="none" xmlns="http://www.w3.org/2000/svg">
<path d="M22.6585 28.0105L21.1385 29.5305C20.5185 30.1505 19.4985 30.1505 18.8785 29.5305L17.3584 28.0105C17.0984 27.7505 16.5885 27.5405 16.2285 27.5405H14.0784C13.1984 27.5405 12.4785 26.8204 12.4785 25.9404V23.7905C12.4785 23.4305 12.2685 22.9205 12.0085 22.6605L10.4884 21.1405C9.86844 20.5205 9.86844 19.5005 10.4884 18.8805L12.0085 17.3605C12.2685 17.1005 12.4785 16.5905 12.4785 16.2305V14.0804C12.4785 13.2004 13.1984 12.4805 14.0784 12.4805" stroke="#B2ABAB" stroke-width="1.5" stroke-linecap="round" stroke-linejoin="round"/>
<path d="M17.3398 11.9889L18.8598 10.4689C19.4798 9.84891 20.4998 9.84891 21.1198 10.4689L22.6399 11.9889C22.8999 12.2489 23.4098 12.4589 23.7698 12.4589H25.9199C26.7999 12.4589 27.5198 13.179 27.5198 14.059V16.2089C27.5198 16.5689 27.7298 17.0789 27.9898 17.3389L29.5099 18.8589C30.1299 19.4789 30.1299 20.4989 29.5099 21.1189L27.9898 22.639C27.7298 22.899 27.5198 23.409 27.5198 23.769V25.919C27.5198 26.799 26.7999 27.519 25.9199 27.519" stroke="#B2ABAB" stroke-width="1.5" stroke-linecap="round" stroke-linejoin="round"/>
<path d="M17 23L23 17" stroke="#B2ABAB" stroke-width="1.5" stroke-linecap="round" stroke-linejoin="round"/>
<path d="M22.4945 22.5H22.5035" stroke="#B2ABAB" stroke-width="2" stroke-linecap="round" stroke-linejoin="round"/>
<path d="M17.4945 17.5H17.5035" stroke="#B2ABAB" stroke-width="2" stroke-linecap="round" stroke-linejoin="round"/>
</svg>
