<svg width="20" height="20" viewBox="0 0 20 20" fill="none" xmlns="http://www.w3.org/2000/svg">
<path fill-rule="evenodd" clip-rule="evenodd" d="M10.001 1.04297C8.28817 1.04297 6.64547 1.7234 5.4343 2.93457C4.22313 4.14574 3.5427 5.78844 3.5427 7.5013V8.08797C3.54265 8.66871 3.3707 9.23645 3.04853 9.71963L2.0927 11.1555C0.98103 12.8221 1.82936 15.0871 3.76186 15.6138C4.39103 15.7855 5.02603 15.9305 5.6652 16.0496L5.66686 16.0538C6.30686 17.7638 8.01936 18.9596 10.001 18.9596C11.9827 18.9596 13.6952 17.7638 14.336 16.0538L14.3377 16.0496C14.9779 15.9305 15.6128 15.7851 16.241 15.6138C18.1735 15.0871 19.0219 12.8221 17.9102 11.1555L16.9535 9.71963C16.6314 9.23645 16.4594 8.66871 16.4594 8.08797V7.5013C16.4594 5.78844 15.7789 4.14574 14.5678 2.93457C13.3566 1.7234 11.7139 1.04297 10.001 1.04297ZM12.8144 16.2821C10.9452 16.5055 9.05605 16.5055 7.18686 16.2821C7.77936 17.133 8.8102 17.7096 10.001 17.7096C11.1919 17.7096 12.2219 17.133 12.8144 16.2821ZM4.7927 7.5013C4.7927 6.11997 5.34143 4.79521 6.31818 3.81845C7.29493 2.8417 8.61969 2.29297 10.001 2.29297C11.3824 2.29297 12.7071 2.8417 13.6839 3.81845C14.6606 4.79521 15.2094 6.11997 15.2094 7.5013V8.08797C15.2094 8.91547 15.4544 9.72463 15.9135 10.413L16.8702 11.8488C17.0184 12.0708 17.1118 12.3249 17.1424 12.5901C17.1731 12.8552 17.1403 13.1239 17.0467 13.3739C16.9531 13.6239 16.8014 13.8481 16.604 14.0279C16.4067 14.2076 16.1695 14.3379 15.9119 14.408C12.0417 15.4634 7.95952 15.4634 4.08936 14.408C3.832 14.3377 3.59501 14.2074 3.39789 14.0276C3.20078 13.8478 3.04919 13.6238 2.95561 13.374C2.86203 13.1242 2.82914 12.8557 2.85963 12.5907C2.89013 12.3257 2.98315 12.0717 3.13103 11.8496L4.08936 10.413C4.54815 9.72437 4.79287 8.9154 4.7927 8.08797V7.5013Z" fill="#0D062D"/>
</svg>
