<svg width="40" height="40" viewBox="0 0 40 40" fill="none" xmlns="http://www.w3.org/2000/svg">
<circle cx="20" cy="20" r="19.6429" stroke="#E6E6E6" stroke-width="0.714286"/>
<path fill-rule="evenodd" clip-rule="evenodd" d="M15.5782 10.9119C12.8091 11.5544 10.75 14.0334 10.75 17C10.75 17.4142 10.4142 17.75 10 17.75C9.58579 17.75 9.25 17.4142 9.25 17C9.25 12.7158 12.7158 9.25 17 9.25C17.2702 9.25 17.5195 9.39534 17.6526 9.63047C17.7858 9.8656 17.7821 10.1542 17.6431 10.3859L16.5931 12.1359C16.38 12.4911 15.9193 12.6062 15.5641 12.3931C15.209 12.18 15.0938 11.7193 15.3069 11.3641L15.5782 10.9119ZM30 22.25C30.4142 22.25 30.75 22.5858 30.75 23C30.75 27.2842 27.2842 30.75 23 30.75C22.7298 30.75 22.4805 30.6047 22.3474 30.3695C22.2142 30.1344 22.2179 29.8458 22.3569 29.6141L23.4069 27.8641C23.62 27.5089 24.0807 27.3938 24.4359 27.6069C24.791 27.82 24.9062 28.2807 24.6931 28.6359L24.4218 29.0881C27.1909 28.4456 29.25 25.9666 29.25 23C29.25 22.5858 29.5858 22.25 30 22.25Z" fill="#34CAA5"/>
<path d="M24.3979 16.2109L20.638 14.1809C20.238 13.9709 19.768 13.9709 19.368 14.1809L15.6079 16.2109C15.3379 16.3609 15.168 16.6509 15.168 16.9809C15.168 17.3109 15.3379 17.6009 15.6079 17.7509L19.368 19.7809C19.568 19.8909 19.788 19.9409 20.008 19.9409C20.228 19.9409 20.4479 19.8909 20.6479 19.7809L24.408 17.7509C24.678 17.6009 24.848 17.3109 24.848 16.9809C24.838 16.6509 24.6679 16.3609 24.3979 16.2109Z" fill="#34CAA5"/>
<path opacity="0.4" d="M18.7383 20.4724L15.2383 18.7224C14.9683 18.5924 14.6583 18.6024 14.3983 18.7624C14.1383 18.9224 13.9883 19.1924 13.9883 19.4924V22.8024C13.9883 23.3724 14.3083 23.8924 14.8183 24.1424L18.3183 25.8924C18.4383 25.9524 18.5683 25.9824 18.7083 25.9824C18.8683 25.9824 19.0183 25.9424 19.1583 25.8524C19.4183 25.6924 19.5683 25.4224 19.5683 25.1224V21.8124C19.5683 21.2424 19.2583 20.7324 18.7383 20.4724Z" fill="#34CAA5"/>
<path opacity="0.4" d="M25.588 18.7624C25.328 18.6024 25.018 18.5924 24.748 18.7224L21.248 20.4724C20.738 20.7324 20.418 21.2424 20.418 21.8124V25.1224C20.418 25.4224 20.5679 25.6924 20.8279 25.8524C20.9679 25.9424 21.118 25.9824 21.278 25.9824C21.408 25.9824 21.538 25.9524 21.668 25.8924L25.168 24.1424C25.678 23.8824 25.998 23.3724 25.998 22.8024V19.4924C25.998 19.1924 25.848 18.9224 25.588 18.7624Z" fill="#34CAA5"/>
</svg>
