<svg width="40" height="40" viewBox="0 0 40 40" fill="none" xmlns="http://www.w3.org/2000/svg">
<circle cx="20" cy="20" r="19.6429" stroke="#E6E6E6" stroke-width="0.714286"/>
<path opacity="0.4" d="M27.3484 13.66L21.0584 10.27C20.3984 9.91 19.5984 9.91 18.9284 10.27L12.6385 13.66C12.1785 13.91 11.8984 14.4 11.8984 14.94C11.8984 15.48 12.1785 15.97 12.6385 16.22L18.9284 19.61C19.2584 19.79 19.6284 19.88 19.9884 19.88C20.3484 19.88 20.7184 19.79 21.0484 19.61L27.3384 16.22C27.7984 15.97 28.0784 15.48 28.0784 14.94C28.0984 14.4 27.8084 13.91 27.3484 13.66Z" fill="#34CAA5"/>
<path opacity="0.4" d="M17.8987 20.7884L12.0487 17.8584C11.5987 17.6284 11.0787 17.6584 10.6487 17.9184C10.2187 18.1784 9.96875 18.6385 9.96875 19.1385V24.6684C9.96875 25.6284 10.4987 26.4884 11.3587 26.9184L17.2087 29.8385C17.4087 29.9385 17.6288 29.9884 17.8488 29.9884C18.1088 29.9884 18.3688 29.9185 18.5988 29.7685C19.0288 29.5085 19.2787 29.0484 19.2787 28.5484V23.0185C19.2887 22.0785 18.7587 21.2184 17.8987 20.7884Z" fill="#34CAA5"/>
<path opacity="0.4" d="M30.0309 19.1497V23.7396C30.0209 23.7296 30.0109 23.7097 30.0009 23.6997C30.0009 23.6897 29.991 23.6796 29.981 23.6696C29.941 23.6096 29.8909 23.5496 29.8409 23.4996C29.8309 23.4896 29.8209 23.4697 29.8109 23.4597C29.0009 22.5597 27.8109 21.9996 26.5009 21.9996C25.2409 21.9996 24.0909 22.5196 23.2709 23.3596C22.4809 24.1696 22.0009 25.2796 22.0009 26.4996C22.0009 27.3396 22.2409 28.1397 22.6509 28.8197C22.8209 29.1097 23.031 29.3696 23.261 29.6096L22.791 29.8496C22.591 29.9496 22.3709 29.9996 22.1509 29.9996C21.8909 29.9996 21.631 29.9297 21.391 29.7797C20.971 29.5197 20.7109 29.0596 20.7109 28.5596V23.0396C20.7109 22.0796 21.241 21.2196 22.101 20.7896L27.951 17.8696C28.401 17.6396 28.921 17.6596 29.351 17.9296C29.771 18.1896 30.0309 18.6497 30.0309 19.1497Z" fill="#34CAA5"/>
<path d="M29.98 23.6695C29.16 22.6595 27.91 22.0195 26.5 22.0195C25.44 22.0195 24.46 22.3895 23.69 23.0095C22.65 23.8295 22 25.0995 22 26.5195C22 27.3595 22.24 28.1595 22.65 28.8395C22.92 29.2895 23.26 29.6795 23.66 29.9995H23.67C24.44 30.6395 25.43 31.0195 26.5 31.0195C27.64 31.0195 28.67 30.5995 29.46 29.8995C29.81 29.5995 30.11 29.2395 30.35 28.8395C30.76 28.1595 31 27.3595 31 26.5195C31 25.4395 30.62 24.4395 29.98 23.6695ZM28.76 25.9595L26.36 28.1795C26.22 28.3095 26.03 28.3795 25.85 28.3795C25.66 28.3795 25.47 28.3095 25.32 28.1595L24.21 27.0495C23.92 26.7595 23.92 26.2795 24.21 25.9895C24.5 25.6995 24.98 25.6995 25.27 25.9895L25.87 26.5895L27.74 24.8595C28.04 24.5795 28.52 24.5995 28.8 24.8995C29.09 25.2095 29.07 25.6795 28.76 25.9595Z" fill="#34CAA5"/>
</svg>
