<svg width="16" height="16" viewBox="0 0 16 16" fill="none" xmlns="http://www.w3.org/2000/svg">
<path d="M6 11.832C5.93333 11.832 5.87333 11.8187 5.80667 11.792C5.62 11.7187 5.5 11.532 5.5 11.332V7.33203C5.5 7.0587 5.72667 6.83203 6 6.83203C6.27333 6.83203 6.5 7.0587 6.5 7.33203V10.1254L6.98 9.64536C7.17333 9.45203 7.49333 9.45203 7.68667 9.64536C7.88 9.8387 7.88 10.1587 7.68667 10.352L6.35333 11.6854C6.26 11.7787 6.12667 11.832 6 11.832Z" fill="#292D32"/>
<path d="M5.99964 11.8317C5.87297 11.8317 5.7463 11.785 5.6463 11.685L4.31297 10.3517C4.11964 10.1583 4.11964 9.83833 4.31297 9.645C4.5063 9.45167 4.8263 9.45167 5.01964 9.645L6.35297 10.9783C6.5463 11.1717 6.5463 11.4917 6.35297 11.685C6.25297 11.785 6.1263 11.8317 5.99964 11.8317Z" fill="#292D32"/>
<path d="M9.9987 15.1654H5.9987C2.3787 15.1654 0.832031 13.6187 0.832031 9.9987V5.9987C0.832031 2.3787 2.3787 0.832031 5.9987 0.832031H9.33203C9.60536 0.832031 9.83203 1.0587 9.83203 1.33203C9.83203 1.60536 9.60536 1.83203 9.33203 1.83203H5.9987C2.92536 1.83203 1.83203 2.92536 1.83203 5.9987V9.9987C1.83203 13.072 2.92536 14.1654 5.9987 14.1654H9.9987C13.072 14.1654 14.1654 13.072 14.1654 9.9987V6.66536C14.1654 6.39203 14.392 6.16536 14.6654 6.16536C14.9387 6.16536 15.1654 6.39203 15.1654 6.66536V9.9987C15.1654 13.6187 13.6187 15.1654 9.9987 15.1654Z" fill="#292D32"/>
<path d="M14.6654 7.16829H11.9987C9.7187 7.16829 8.83203 6.28162 8.83203 4.00162V1.33495C8.83203 1.13495 8.95203 0.948287 9.1387 0.874953C9.32536 0.794953 9.5387 0.84162 9.68536 0.98162L15.0187 6.31495C15.1587 6.45495 15.2054 6.67495 15.1254 6.86162C15.0454 7.04829 14.8654 7.16829 14.6654 7.16829ZM9.83203 2.54162V4.00162C9.83203 5.72162 10.2787 6.16829 11.9987 6.16829H13.4587L9.83203 2.54162Z" fill="#292D32"/>
</svg>
